<svg width="28" height="28" viewBox="0 0 28 28" fill="none" xmlns="http://www.w3.org/2000/svg">
<path d="M10.839 26.3439C16.8251 26.3439 21.6779 21.4912 21.6779 15.505C21.6779 9.51878 16.8251 4.66602 10.839 4.66602C4.85276 4.66602 0 9.51878 0 15.505C0 21.4912 4.85276 26.3439 10.839 26.3439Z" fill="url(#paint0_linear_9600_34632)"/>
<path d="M10.9607 23.8826L10.8232 23.6484C8.7232 20.0703 3.14272 12.4773 3.08636 12.4011L3.00586 12.2917L4.90709 10.4128L10.9254 14.6151C14.7147 9.69803 18.2498 6.32072 20.5557 4.3485C23.0782 2.19108 24.7203 1.19789 24.7368 1.18837L24.7742 1.16602H27.9992L27.6911 1.44037C19.7682 8.49723 11.1808 23.4959 11.0952 23.6466L10.9607 23.8826Z" fill="white"/>
<defs>
<linearGradient id="paint0_linear_9600_34632" x1="17.4154" y1="15.4804" x2="10.4129" y2="15.5138" gradientUnits="userSpaceOnUse">
<stop stop-color="#FE551A"/>
<stop offset="1" stop-color="#9430D8"/>
</linearGradient>
</defs>
</svg>
