<svg width="334" height="71" viewBox="0 0 334 71" fill="none" xmlns="http://www.w3.org/2000/svg">
<path d="M314.273 22.4331C317.542 19.1698 319.046 14.8622 318.719 10.5547L322.707 14.5359L330.617 22.4331C335.128 26.9364 335.128 34.2462 330.617 38.7495L311.528 57.8072C307.017 62.3105 299.695 62.3105 295.184 57.8072C290.673 53.3038 290.673 45.9941 295.184 41.4907L314.273 22.4331Z" fill="#FF4200"/>
<path d="M311.528 3.37763C316.039 7.88113 316.039 15.1912 311.528 19.6947L303.356 27.8532L295.184 19.6947C290.673 15.1912 290.673 7.88113 295.184 3.37763C299.695 -1.12588 307.017 -1.12588 311.528 3.37763Z" fill="#8F00FF"/>
<path d="M43.1471 15.1927C32.4911 15.1927 23.8617 23.8078 23.8617 34.4461C23.8617 45.0845 32.5565 53.6996 43.1471 53.6996C53.7378 53.6996 62.4326 45.0845 62.4326 34.4461C62.4326 23.8078 53.8032 15.1927 43.1471 15.1927ZM43.1471 45.9982C36.7404 45.9982 31.5759 40.8422 31.5759 34.4461C31.5759 28.0501 36.8058 22.8941 43.1471 22.8941C49.4885 22.8941 54.7184 28.0501 54.7184 34.4461C54.7184 40.8422 49.5538 45.9982 43.1471 45.9982ZM179.649 15.1927C175.334 15.1927 171.281 16.6285 168.078 19.0434V7.49131C168.078 5.33754 166.378 3.64062 164.221 3.64062H160.364V53.6996H168.078V49.8489C171.281 52.2637 175.334 53.6996 179.649 53.6996C190.305 53.6996 198.934 45.0845 198.934 34.4461C198.934 23.8078 190.305 15.1927 179.649 15.1927ZM179.649 45.9982C173.242 45.9982 168.078 40.8422 168.078 34.4461C168.078 28.0501 173.242 22.8941 179.649 22.8941C186.056 22.8941 191.22 28.0501 191.22 34.4461C191.22 40.8422 186.056 45.9982 179.649 45.9982ZM144.216 15.1927H151.93V51.4153C151.93 61.9883 143.562 70.7992 132.972 70.995C122.185 71.1908 113.359 62.5105 113.359 51.7416H117.674C119.439 51.7416 120.943 52.9164 121.4 54.6133C122.708 59.704 127.415 63.4242 132.972 63.2937C139.248 63.0979 144.216 57.8113 144.216 51.4805V45.9329C140.947 48.3478 136.894 49.7836 132.514 49.7836C121.858 49.7183 113.359 40.8422 113.359 30.2038V15.1927H117.216C119.374 15.1927 121.073 16.8896 121.073 19.0434V30.3344C121.073 36.5999 125.977 41.9517 132.318 42.1475C138.855 42.3433 144.216 37.0568 144.216 30.5954V15.1927ZM106.43 34.4461V53.6996H102.573C100.415 53.6996 98.7154 52.0027 98.7154 49.8489V34.4461C98.7154 28.0501 93.5508 22.8941 87.1441 22.8941C80.7374 22.8941 75.5729 28.0501 75.5729 34.4461V53.6996H67.8587V15.1927H75.5729V19.0434C78.7762 16.6285 82.8294 15.1927 87.1441 15.1927C97.8002 15.1927 106.43 23.8078 106.43 34.4461ZM19.2855 45.9982V53.6996C8.62943 53.6996 0 45.0845 0 34.4461V7.49131H3.85709C6.01445 7.49131 7.71419 9.18823 7.71419 11.342V15.1927H19.2855V22.8941H7.71419V34.4461C7.71419 40.7769 12.8788 45.9982 19.2855 45.9982ZM255.222 22.8941V34.4461C255.222 40.8422 260.386 45.9982 266.793 45.9982V53.6996C256.137 53.6996 247.508 45.0845 247.508 34.4461V7.49131H251.365C253.522 7.49131 255.222 9.18823 255.222 11.342V15.1927H266.793V22.8941H255.222ZM241.559 37.122C241.689 36.2736 241.755 35.3598 241.755 34.4461C241.755 23.5467 232.733 14.8011 221.75 15.1927C211.748 15.5843 203.641 23.6773 203.249 33.6629C202.857 44.6276 211.617 53.6343 222.535 53.6343C228.811 53.6343 234.367 50.6321 237.832 46.0635L235.479 44.6929C233.191 43.3876 230.314 43.3223 227.961 44.5623C226.065 45.6066 223.842 46.1287 221.489 45.8677C216.52 45.4108 212.402 41.8212 211.225 37.0568H241.559V37.122ZM223.646 22.9593C228.091 23.4162 231.883 26.4837 233.321 30.5954H211.552C213.251 25.7658 218.089 22.3719 223.646 22.9593Z" fill="white"/>
</svg>
