<svg width="42" height="42" viewBox="0 0 42 42" fill="none" xmlns="http://www.w3.org/2000/svg">
<rect width="42" height="42" rx="21" fill="url(#paint0_linear_9600_34958)"/>
<path d="M15.6203 16.5943C15.768 16.9509 16.116 17.1834 16.5019 17.1834H20.3185V30.5417C20.3185 31.0686 20.7457 31.4958 21.2727 31.4958C21.7997 31.4958 22.2269 31.0686 22.2269 30.5417V17.1834H26.0435C26.4295 17.1834 26.7774 16.9509 26.925 16.5943C27.0727 16.2378 26.9911 15.8274 26.7182 15.5545L21.9474 10.7836C21.7611 10.5973 21.5169 10.5042 21.2727 10.5042C21.0285 10.5042 20.7843 10.5973 20.598 10.7837L15.8271 15.5545C15.5543 15.8274 15.4726 16.2378 15.6203 16.5943ZM21.2727 12.8077L23.74 15.275H18.8055L21.2727 12.8077Z" fill="white"/>
<defs>
<linearGradient id="paint0_linear_9600_34958" x1="33.7416" y1="20.9524" x2="20.1745" y2="21.0171" gradientUnits="userSpaceOnUse">
<stop stop-color="#FE551A"/>
<stop offset="1" stop-color="#9430D8"/>
</linearGradient>
</defs>
</svg>
